<svg xmlns="http://www.w3.org/2000/svg" viewBox="0 0 520 300" role="img" aria-label="Osas Construction Group">
  <defs>
    <path id="arch" d="M 30 210 A 240 190 0 0 1 490 210" fill="none"/>
  </defs>
  <text font-family="Georgia, 'Times New Roman', 'Liberation Serif', serif" font-size="54" fill="currentColor" letter-spacing="1">
    <textPath href="#arch" startOffset="50%" text-anchor="middle">Osas Construction Group</textPath>
  </text>
  <g transform="translate(130 150) scale(1.95)">
    <rect x="2"   y="2"  width="30" height="14" rx="1.5" fill="#C0553A"/>
    <rect x="35"  y="2"  width="30" height="14" rx="1.5" fill="#D07452"/>
    <rect x="68"  y="2"  width="30" height="14" rx="1.5" fill="#B84A31"/>
    <rect x="101" y="2"  width="29" height="14" rx="1.5" fill="#C96143"/>
    <rect x="12"  y="20" width="30" height="14" rx="1.5" fill="#D07452"/>
    <rect x="45"  y="20" width="42" height="14" rx="1.5" fill="#B84A31"/>
    <rect x="90"  y="20" width="40" height="14" rx="1.5" fill="#C96143"/>
    <rect x="2"   y="38" width="34" height="14" rx="1.5" fill="#C0553A"/>
    <rect x="39"  y="38" width="26" height="14" rx="1.5" fill="#8E3A26"/>
    <rect x="68"  y="38" width="30" height="14" rx="1.5" fill="#D07452"/>
    <rect x="101" y="38" width="29" height="14" rx="1.5" fill="#B84A31"/>
  </g>
</svg>
